<!-- Generated by IcoMoon.io -->
<svg version="1.1" xmlns="http://www.w3.org/2000/svg" width="2301" height="1024" viewBox="0 0 2301 1024">
<title></title>
<g id="icomoon-ignore">
</g>
<path fill="#d51317" d="M2270.384 876.606c2.586-2.586 2.586-5.172 5.172-5.172 0-2.586 2.586-5.172 2.586-10.343v-336.162c0-5.172 0-7.758-2.586-10.343 0-2.586-2.586-5.172-5.172-5.172-5.172-5.172-18.101-5.172-36.202-5.172s-31.030 2.586-36.202 5.172c-2.586 2.586-2.586 2.586-5.172 5.172 0 2.586-2.586 5.172-2.586 10.343v336.162c0 7.758 2.586 12.929 5.172 15.515 7.758 5.172 20.687 5.172 38.788 5.172 20.687 0 33.616 0 36.202-5.172zM2022.141 879.192c18.101-7.758 36.202-15.515 46.545-28.444 12.929-12.929 20.687-25.859 28.444-41.374 5.172-15.515 7.758-33.616 7.758-51.717v-232.727c0-7.758-2.586-12.929-5.172-15.515-5.172-5.172-18.101-5.172-36.202-5.172s-31.030 2.586-36.202 5.172c-2.586 2.586-5.172 2.586-5.172 5.172s-2.586 5.172-2.586 10.343v232.727c0 10.343-2.586 18.101-5.172 28.444s-10.343 18.101-20.687 23.273-25.859 10.343-43.96 10.343c-12.929 0-23.273-2.586-31.030-5.172s-15.515-7.758-20.687-12.929c-5.172-5.172-10.343-12.929-12.929-20.687s-5.172-15.515-5.172-25.859v-232.727c0-7.758-2.586-12.929-5.172-15.515-5.172-5.172-18.101-5.172-36.202-5.172s-31.030 2.586-36.202 5.172c-2.586 2.586-5.172 2.586-5.172 5.172s-2.586 5.172-2.586 10.343v232.727c0 18.101 2.586 36.202 7.758 51.717s15.515 31.030 28.444 41.374c12.929 12.929 28.444 20.687 46.545 28.444s41.374 10.343 69.818 10.343c28.444 2.586 51.717-2.586 74.99-7.758zM1608.404 876.606c2.586-2.586 2.586-5.172 5.172-5.172 0-2.586 2.586-5.172 2.586-10.343v-289.616h85.333c5.172 0 10.343 0 15.515-2.586 2.586 0 7.758-2.586 10.343-7.758s5.172-12.929 5.172-20.687c2.586-7.758 2.586-15.515 2.586-20.687s0-7.758 0-10.343c0-2.586-2.586-5.172-5.172-5.172s-2.586-2.586-5.172-2.586-5.172 0-10.343 0h-266.343c-5.172 0-10.343 0-15.515 2.586-2.586 0-7.758 2.586-10.343 7.758s-5.172 10.343-5.172 18.101c-2.586 7.758-2.586 15.515-2.586 23.273 0 5.172 0 7.758 0 10.343s2.586 5.172 5.172 5.172 10.343 2.586 18.101 2.586h93.091v287.030c0 7.758 2.586 12.929 5.172 15.515 2.586 5.172 15.515 5.172 36.202 5.172 20.687 2.586 28.444 2.586 36.202-2.586z"></path>
<path fill="#d51317" d="M74.99 297.374h294.788c28.444 0 51.717 10.343 59.475 49.131 10.343 46.545 5.172 77.576-46.545 80.162l-90.505 7.758c67.232 429.253 465.455 568.889 682.667 106.020 36.202-77.576 46.545-90.505 87.919-80.162 54.303 12.929 59.475 41.374 36.202 118.949-186.182 571.475-817.131 628.364-941.253-134.465l-74.99 5.172c-62.061 5.172-64.646-46.545-64.646-74.99-2.586-59.475 18.101-77.576 56.889-77.576z"></path>
<path fill="#d51317" d="M1142.949 20.687c59.475 0 108.606 49.131 108.606 108.606s-49.131 108.606-108.606 108.606-108.606-49.131-108.606-108.606c0-59.475 51.717-108.606 108.606-108.606z"></path>
</svg>
